<?xml version="1.0" encoding="UTF-8" standalone="no"?>
<!-- Created with Inkscape (http://www.inkscape.org/) -->

<svg
   xmlns:dc="http://purl.org/dc/elements/1.1/"
   xmlns:cc="http://creativecommons.org/ns#"
   xmlns:rdf="http://www.w3.org/1999/02/22-rdf-syntax-ns#"
   xmlns:svg="http://www.w3.org/2000/svg"
   xmlns="http://www.w3.org/2000/svg"
   xmlns:sodipodi="http://sodipodi.sourceforge.net/DTD/sodipodi-0.dtd"
   xmlns:inkscape="http://www.inkscape.org/namespaces/inkscape"
   width="109.8142mm"
   height="166.1864mm"
   viewBox="0 0 109.81419 166.1864"
   version="1.1"
   id="svg8"
   inkscape:version="0.92.4 (5da689c313, 2019-01-14)"
   sodipodi:docname="favicon.svg">
  <defs
     id="defs2" />
  <sodipodi:namedview
     id="base"
     pagecolor="#ffffff"
     bordercolor="#666666"
     borderopacity="1.0"
     inkscape:pageopacity="0.0"
     inkscape:pageshadow="2"
     inkscape:zoom="0.98994949"
     inkscape:cx="619.04777"
     inkscape:cy="308.10243"
     inkscape:document-units="mm"
     inkscape:current-layer="layer1-3"
     showgrid="false"
     fit-margin-top="0"
     fit-margin-left="0"
     fit-margin-right="0"
     fit-margin-bottom="0"
     inkscape:window-width="1850"
     inkscape:window-height="1016"
     inkscape:window-x="70"
     inkscape:window-y="27"
     inkscape:window-maximized="1"
     showguides="false"
     inkscape:snap-page="false" />
  <metadata
     id="metadata5">
    <rdf:RDF>
      <cc:Work
         rdf:about="">
        <dc:format>image/svg+xml</dc:format>
        <dc:type
           rdf:resource="http://purl.org/dc/dcmitype/StillImage" />
        <dc:title></dc:title>
      </cc:Work>
    </rdf:RDF>
  </metadata>
  <g
     inkscape:label="Layer 1"
     inkscape:groupmode="layer"
     id="layer1"
     transform="translate(-51.016286,-51.448576)">
    <g
       inkscape:label="Layer 1"
       id="layer1-3"
       transform="translate(4.8903633,10.10695)">
      <g
         id="g24">
        <path
           style="fill:#52f7e3;stroke-width:0.19162215"
           d="m 100.65491,207.30842 c -0.36834,-0.0989 -2.219567,-0.53163 -4.113857,-0.96167 C 84.633563,201.3963 79.188451,180.43431 80.16556,169.32114 79.725409,159.10707 60.86568,66.619644 98.86943,55.528711 c 12.0668,-3.491013 -2.422276,-13.830845 -2.144981,-13.830845 1.093676,0 52.274711,7.690802 52.722751,7.922471 0.26309,0.13604 0.57841,0.4601 0.70074,0.720132 0.49694,1.056478 2.46694,27.840817 3.49989,47.584947 1.46631,28.027354 2.45347,66.879124 2.27049,89.358834 -0.0568,6.977 -0.0862,7.54003 -0.41341,7.90241 -0.57491,0.63681 -1.30694,0.89512 -6.82308,2.40768 -14.11018,3.86911 -27.8212,6.99077 -39.40489,8.97147 -4.71657,0.8065 -7.49321,1.04565 -8.62203,0.74261 z"
           id="path38"
           inkscape:connector-curvature="0"
           sodipodi:nodetypes="ccccsccsccscc" />
        <path
           style="fill:#4886dd;stroke-width:0.71170378"
           d="m 194.46094,1.9882812 c -1.01142,0 -37.85021,10.8030438 -81.86328,24.0058598 21.34473,298.366329 1.98843,333.668999 30.90068,505.280989 -6.36433,31.06912 46.99705,91.84615 49.04268,92.42409 6.90932,1.62641 14.29711,3.58714 15.64062,3.96094 4.11723,1.14606 14.68134,-0.79754 31.88477,-3.84766 42.25088,-7.49087 92.44012,-17.59968 143.90625,-32.23242 20.1199,-5.72039 22.78972,-6.69712 24.88672,-9.10547 1.19334,-1.37042 1.30069,-3.50006 1.50781,-29.88672 0.66742,-85.01692 -2.93296,-231.95331 -8.28125,-337.95117 C 398.31832,139.96557 391.1329,38.669367 389.32031,34.673828 388.87418,33.690399 387.72329,32.465671 386.76367,31.951172 385.12944,31.075017 198.45007,1.9882812 194.46094,1.9882812 Z M 272.8457,115.19336 c 5.4733,-0.10361 11.05908,1.20568 15.51368,3.87891 13.21507,7.93047 24.54408,29.80012 28.63867,55.28515 2.12197,13.20572 2.11698,30.51526 -0.0117,43.5332 -4.3282,26.46875 -15.2178,46.00889 -29.79688,53.47266 -4.00943,2.05251 -5.4621,2.3964 -10.97265,2.5918 -5.00497,0.17779 -7.14451,-0.079 -10.08789,-1.21289 -16.49859,-6.35547 -29.48368,-27.59677 -34.85352,-57.01563 -0.92111,-5.04618 -1.18649,-10.41173 -1.15625,-23.58789 0.0312,-14.89907 0.23522,-18.01875 1.61524,-24.67578 5.14816,-24.83402 15.55051,-42.49099 29.12695,-49.44141 3.53832,-1.81143 7.72736,-2.74754 11.98437,-2.82812 z m -5.07422,52.45703 c -3.00641,0.1272 -5.99344,1.83858 -9.08789,5.14258 -12.94545,13.8219 -8.90439,47.4506 6.38282,53.11719 v -0.002 c 3.59765,1.33433 4.96586,1.2849 8.31445,-0.29687 14.97796,-7.07512 17.22155,-40.52881 3.59375,-53.5918 -3.17034,-3.03894 -6.19671,-4.49634 -9.20313,-4.36914 z m 24.18164,271.27734 c 2.06872,-0.002 4.1854,0.32075 6.3418,0.97266 14.02027,4.23844 25.03094,26.76423 26.16211,53.52344 1.22222,28.91327 -9.28631,54.04271 -25.01172,59.8125 -7.04515,2.58482 -14.95269,0.40557 -21.54101,-5.9375 -22.261,-21.43234 -23.97267,-76.18171 -3.11524,-99.60938 5.17714,-5.81315 10.95797,-8.75425 17.16406,-8.76172 z m -3.93164,38.44141 c -7.17093,0.0122 -12.29449,8.53226 -12.33984,20.51563 -0.0414,10.95983 3.80452,18.86819 10.30859,21.19335 4.94688,1.76856 9.87282,-1.50097 12.96485,-8.60546 1.37631,-3.16271 1.61719,-4.90376 1.61719,-11.71485 0,-7.59216 -0.11899,-8.24798 -2.31641,-12.88867 -2.76782,-5.84557 -5.9722,-8.50756 -10.23438,-8.5 z"
           transform="matrix(0.26458333,0,0,0.26458333,46.125923,41.341626)"
           id="path36"
           inkscape:connector-curvature="0"
           sodipodi:nodetypes="sccccccccsccscccscccccsscscccsssccscsccccccscc" />
        <path
           style="fill:#596f9b;stroke-width:0.1915302"
           d="m 100.62119,207.11631 c -0.36795,-0.0989 -2.217238,-0.53168 -4.109531,-0.96176 -8.816776,-2.00386 -24.62672,-6.44652 -41.072584,-11.54156 -7.976706,-2.47121 -9.055906,-2.88581 -9.219929,-3.54202 -0.05752,-0.23006 0.07468,-2.04661 0.293754,-4.03676 2.718359,-24.69442 3.787468,-65.43796 3.048178,-116.165536 l -0.222151,-15.243207 0.498394,-0.430448 c 0.274116,-0.236747 0.953435,-0.560609 1.509598,-0.719697 0.556164,-0.159086 10.873653,-3.1458 22.927753,-6.637141 12.054101,-3.491339 22.143185,-6.34789 22.420189,-6.34789 1.092524,0 52.219669,7.69152 52.667239,7.923212 0.26281,0.136052 0.57782,0.460141 0.7,0.720198 0.49642,1.056577 2.46435,27.843416 3.49621,47.58939 1.46476,28.029969 2.45089,66.885359 2.2681,89.367179 -0.0569,6.97765 -0.0861,7.54074 -0.41296,7.90315 -0.57433,0.63687 -1.30557,0.8952 -6.81591,2.4079 -14.09532,3.86948 -27.79191,6.99142 -39.3634,8.97231 -4.71161,0.80657 -7.48534,1.04574 -8.61295,0.74268 z m 29.50367,-12.96937 c 3.46642,-0.89794 6.77669,-3.87566 9.26274,-8.3322 1.47584,-2.64561 2.84806,-7.0294 3.38303,-10.80765 0.36606,-2.58535 0.36166,-8.45665 -0.008,-11.07045 -1.38903,-9.81396 -6.48422,-17.47406 -12.70547,-19.10139 -1.61658,-0.42286 -4.22567,-0.30362 -5.81683,0.26584 -7.13278,2.55278 -12.1504,12.62917 -12.1504,24.40039 0,12.3599 5.5424,22.80712 13.09313,24.68 1.35706,0.33661 3.56904,0.32115 4.94209,-0.0345 z m -6.52988,-2.10241 c -3.43007,-1.72301 -6.60007,-6.00667 -8.35232,-11.28665 -4.90365,-14.77595 1.01822,-33.10613 11.20945,-34.69698 2.67462,-0.41753 5.39445,0.60874 7.97778,3.01021 2.41094,2.24123 5.01977,6.94145 6.17328,11.12221 l 0.63543,2.30304 -0.009,5.46975 c -0.008,4.70781 -0.0668,5.80392 -0.422,7.86876 -1.04654,6.08211 -2.78345,9.88126 -5.97794,13.0756 -2.32925,2.32913 -5.73102,3.80053 -8.80863,3.81009 -0.8511,0.003 -1.35347,-0.13735 -2.42584,-0.67603 z m 2.55709,-4.99766 c 1.81067,-0.85756 3.58463,-3.00503 4.67448,-5.65875 2.37622,-5.78588 2.02522,-14.32243 -0.79573,-19.35429 -1.81997,-3.24629 -3.11417,-4.4197 -5.40569,-4.90111 -3.29584,-0.69239 -5.96213,1.03507 -7.94724,5.14896 -1.88753,3.91165 -2.51301,8.52714 -1.80467,13.317 1.27358,8.61214 6.36193,13.77688 11.27885,11.44819 z m -4.79211,-9.06526 c -0.84418,-0.54235 -1.36176,-1.17078 -1.84905,-2.24509 -0.56872,-1.25385 -0.62569,-4.27527 -0.10863,-5.76133 0.65088,-1.87069 2.14028,-3.03729 3.45476,-2.70603 1.90779,0.48078 3.2901,3.78289 2.82885,6.75762 -0.24626,1.58825 -1.00648,3.19889 -1.76627,3.74213 -0.81241,0.58084 -1.85212,0.66723 -2.55966,0.2127 z m 5.67372,-55.20348 c 9.41039,-2.00257 16.75556,-13.69553 18.32451,-29.171244 0.28855,-2.846188 0.13312,-9.760366 -0.28199,-12.543203 -2.12465,-14.243772 -9.24785,-24.756564 -18.04252,-26.628103 -11.07351,-2.356484 -21.22331,8.977655 -23.84569,26.628103 -0.69072,4.648983 -0.55793,11.928285 0.30912,16.947289 2.24145,12.974688 9.34893,22.947318 17.64571,24.759038 1.55933,0.3405 4.31108,0.34429 5.89086,0.008 z m -7.35618,-2.6694 c -2.04188,-0.86895 -3.26973,-1.74033 -5.31131,-3.76931 -4.59617,-4.56784 -7.48105,-10.87673 -9.00391,-19.690535 -0.37654,-2.179208 -0.42787,-3.14413 -0.42787,-8.042034 0,-4.902388 0.0512,-5.86171 0.42906,-8.049428 0.87243,-5.050231 2.21693,-9.377552 3.95229,-12.720486 1.50167,-2.892737 2.61127,-4.477695 4.58871,-6.554474 3.27054,-3.434841 6.49874,-5.017899 10.21942,-5.011432 2.833,0.0049 4.93669,0.757977 7.7515,2.774786 2.65612,1.903113 5.33926,5.483921 7.71101,10.290857 1.12095,2.271866 1.51857,3.346864 2.22952,6.027642 1.01291,3.819387 1.22718,5.637244 1.23282,10.459684 0.0146,12.498921 -2.31001,21.41568 -7.1682,27.49565 -2.10163,2.63016 -3.77502,4.01426 -6.53454,5.40482 -2.00475,1.01022 -4.42373,1.65114 -6.64804,1.76145 -1.72398,0.0854 -2.02017,0.0486 -3.02046,-0.37719 z m 1.82449,-7.02432 c 7.0225,-2.6745 11.02511,-15.483103 8.5592,-27.389859 -1.1887,-5.739705 -4.01584,-10.900834 -7.13811,-13.031125 -1.95315,-1.33262 -5.27287,-1.720962 -7.43936,-0.870264 -6.95215,2.729851 -10.9916,15.614862 -8.5502,27.273374 2.16164,10.322574 8.43125,16.355234 14.56847,14.017874 z m -5.92364,-12.69444 c -1.98421,-0.986174 -3.28867,-3.944719 -3.29475,-7.472558 -0.005,-3.043331 1.07379,-5.70996 2.78081,-6.872273 0.85121,-0.57959 1.0494,-0.634901 2.02399,-0.564873 1.74762,0.125577 3.01614,1.384092 4.01247,3.980858 0.57298,1.493348 0.71226,4.817422 0.27384,6.535687 -0.97145,3.807454 -3.34908,5.609489 -5.79636,4.393159 z"
           id="path34"
           inkscape:connector-curvature="0" />
        <path
           style="fill:#4b4d67;stroke-width:0.72756821"
           d="M 189.33008,1.1660156 C 178.8917,4.1780081 37.53905,45.086557 27.861328,47.896484 17.708187,50.844448 14.070522,52.212495 13.039062,53.470703 11.768691,55.020377 11.7051,56.115451 12.138672,68.966797 13.185858,100.0059 14.138096,217.69316 13.710938,263.29102 12.445654,398.35599 8.7016349,485.67861 1.3710938,551.0918 c -0.91687186,8.18158 -1.52069419,15.44277 -1.3398438,16.13476 0.45437102,1.73866 4.5478955,3.35587 23.466797,9.2793 67.382589,21.09717 136.019863,40.29348 176.205073,49.27734 8.77382,1.96131 12.06742,2.39473 15.81055,2.08594 13.23077,-1.091 65.21647,-10.95919 100.00781,-18.98437 39.23864,-9.05099 93.24655,-23.49856 96.49414,-25.8125 1.13095,-0.8058 2.26927,-2.31225 2.5293,-3.34961 0.66361,-2.64586 -0.25352,-145.95629 -1.1543,-180.33204 C 409.89906,266.14319 404.63949,162.6816 396.24414,62.052734 393.9144,34.128115 393.79756,33.246478 392.26367,31.857422 391.29827,30.983138 365.85263,26.953334 290.69922,15.771484 235.54627,7.5654422 189.93013,0.99287547 189.33008,1.1660156 Z M 295.51953,47.21875 c 4.65828,0 9.31676,0.437918 12.72852,1.314453 10.91108,2.803196 23.1796,10.236635 32.12695,19.466797 13.75672,14.191597 25.70038,37.34607 31.91211,61.86719 4.90386,19.358 7.02055,43.18953 5.55273,62.50586 -2.04,26.84581 -7.22732,46.8803 -17.60742,68.00586 -13.8638,28.21572 -33.39892,45.59239 -55.61328,49.46875 -7.62168,1.3299 -11.22853,1.3212 -18.79492,-0.0469 -21.6844,-3.92077 -41.33233,-21.56959 -55.01758,-49.42187 -5.90305,-12.01406 -8.92487,-20.16837 -12.05273,-32.51563 -7.88085,-31.10998 -7.88085,-66.88615 0,-97.99609 6.2118,-24.52112 18.15534,-47.675593 31.91211,-61.86719 8.94727,-9.230162 21.21403,-16.663601 32.125,-19.466797 3.41181,-0.876535 8.07023,-1.314453 12.72851,-1.314453 z m -0.72656,10.224609 c -8.37967,0.111984 -15.26718,2.119454 -23.28711,6.78711 -6.94095,4.039672 -18.53975,15.596931 -24.10938,24.023437 -11.37762,17.213794 -19.08706,38.675434 -22.92578,63.824214 -1.54802,10.14225 -1.75585,41.08343 -0.34375,51.16797 6.29794,44.9765 25.08025,79.13954 50.66407,92.1543 l -0.002,0.002 6.54492,3.32813 8.00196,-0.35742 c 20.49619,-0.91695 38.04157,-10.68845 51.64844,-28.76563 13.43663,-17.85105 21.56081,-43.05777 24.32421,-75.45898 0.92761,-10.85484 0.95137,-40.46189 0.0391,-47.30664 -0.3735,-2.80205 -2.1664,-10.66184 -3.98243,-17.4668 -2.66721,-9.99439 -4.26689,-14.33183 -8.32421,-22.5625 -2.76254,-5.60409 -6.3945,-12.318023 -8.07227,-14.919922 -3.88025,-6.017378 -10.30708,-14.55664 -10.95508,-14.55664 -0.27288,0 -1.76173,1.873628 -3.31055,4.162109 -1.54885,2.288489 -6.72068,9.738475 -11.49218,16.556641 -14.58297,20.837882 -17.87305,25.709932 -17.87305,26.470702 0,0.40207 1.60003,3.3113 3.55469,6.46484 8.07749,13.03201 12.14171,23.4401 14.71289,37.67774 6.1525,34.06863 -0.0502,69.04998 -15.92774,89.82226 -14.68078,19.20654 -34.99276,21.28996 -51.90429,5.32618 -25.41313,-23.98901 -33.05817,-80.01521 -16.25,-119.08985 6.35788,-14.7804 14.34292,-24.47663 24.15234,-29.33008 5.34081,-2.64252 5.89199,-2.76171 12.89258,-2.76171 4.02247,0 8.45929,0.2635 9.85937,0.58593 l 2.54493,0.58789 13.24218,-26.542965 c 9.82303,-19.690726 13.01566,-26.722909 12.36524,-27.238281 -1.86191,-1.475278 -9.17415,-2.672312 -15.78711,-2.583985 z M 265.98828,176.01562 c -6.09966,-0.0368 -11.76203,6.2825 -13.40234,16.86133 -1.81043,11.67643 3.66196,24.73094 11.35742,27.09375 1.16579,0.358 2.77413,0.51311 3.57422,0.34375 0.80001,-0.1694 1.85177,-0.31269 2.33789,-0.31836 0.48612,-0.005 2.06222,-1.04562 3.50195,-2.31054 9.29579,-8.16709 9.75941,-27.84621 0.88281,-37.48243 -2.61667,-2.84057 -5.47938,-4.17077 -8.25195,-4.1875 z m 91.25,133.91797 c 6.80998,0.10273 13.92641,2.53324 20.39063,7.42969 7.08499,5.36663 11.7752,12.10417 15.10742,21.69922 1.75347,5.04998 1.99143,6.79618 1.96875,14.47656 -0.0212,7.10869 -0.32058,9.53452 -1.60547,13.04102 -4.25945,11.62428 -12.92979,19.4639 -23.73633,21.46289 -5.21817,0.96518 -6.07242,0.94231 -11.88476,-0.32031 -10.73605,-2.33224 -20.12398,-10.43117 -26.19141,-22.59766 -6.72068,-13.47659 -6.33198,-29.00772 1.0293,-41.16211 5.66768,-9.35803 14.96882,-14.17943 24.92187,-14.0293 z m -106.41016,8.66993 c 7.84664,0 8.17521,0.0677 13.64063,2.77148 14.10153,6.97629 23.4622,21.45966 24.31641,37.625 0.44776,8.47306 -0.54307,13.64021 -3.90821,20.37109 -3.20987,6.42033 -8.04464,11.27275 -14.08398,14.13672 -4.11553,1.95167 -5.62827,2.26421 -11.64063,2.40821 -11.19666,0.26864 -16.1812,-1.9628 -26.05468,-11.66016 -7.41907,-7.28678 -13.22071,-20.99991 -13.22071,-31.25195 0,-14.10849 7.27373,-26.9703 18.1836,-32.1543 4.39695,-2.08917 5.28974,-2.24609 12.76757,-2.24609 z m 107.17579,2.9121 c -5.82452,0 -6.63002,0.19278 -11.8418,2.83985 -9.30421,4.72566 -13.57514,11.35451 -14.13281,21.93359 -0.84492,16.02803 7.08032,28.35015 21.56445,33.52735 4.126,1.47477 11.79237,1.25059 16.41602,-0.48047 5.82126,-2.17943 14.18169,-10.49968 16.33398,-16.25586 3.21895,-8.60912 2.59552,-17.11535 -1.85352,-25.29492 -2.74182,-5.04099 -9.47078,-11.16648 -15.30078,-13.92969 -4.36698,-2.07012 -5.65764,-2.33985 -11.18554,-2.33985 z m -105.39649,7.27735 c -7.6199,0 -12.56377,2.04287 -18.47461,7.63672 -5.09227,4.81912 -7.12105,9.42394 -7.55078,17.13867 -0.62574,11.23393 2.23877,18.92946 9.84375,26.44531 4.01976,3.97278 5.76185,5.13485 9.63477,6.43164 v 0.002 c 6.23134,2.08618 13.19279,2.14788 18.48633,0.16601 5.8213,-2.17939 14.18165,-10.49971 16.33398,-16.25586 3.21899,-8.60912 2.59548,-17.11339 -1.85352,-25.29297 -2.74185,-5.04098 -9.47082,-11.16842 -15.30078,-13.93164 -4.35409,-2.06366 -5.66656,-2.33984 -11.11914,-2.33984 z m 58.27149,61.18164 c 2.80455,0.079 5.45019,0.40366 7.55078,0.98242 6.36234,1.75302 14.63282,6.5203 20.13086,11.60547 40.5521,37.50599 40.49029,128.69461 -0.11328,166.25 -6.49928,6.01138 -16.14871,11.04609 -23.28907,12.15039 -6.02676,0.93211 -8.7318,0.86166 -14.39648,-0.36914 -22.08359,-4.79845 -40.68288,-28.29346 -48.38477,-61.11719 -2.91167,-12.40883 -3.65429,-19.27497 -3.65429,-33.84179 0,-14.56691 0.74262,-21.43492 3.65429,-33.84375 7.24861,-30.89197 24.33167,-53.77578 44.96094,-60.22657 3.75385,-1.1738 8.86677,-1.72142 13.54102,-1.58984 z m -2.76563,7.74805 c -2.32248,0.0143 -4.53596,0.19557 -6.12695,0.5664 -19.53861,4.55414 -36.6244,27.88632 -43.24024,59.04297 -2.5903,12.19899 -3.30065,35.2948 -1.46875,47.78516 4.60921,31.42658 18.1776,55.70472 36.42383,65.17187 4.62032,2.39724 11.51821,2.57746 19.58985,0.51172 25.25317,-6.46284 41.16437,-30.78122 45.49023,-69.51953 0.40214,-3.60261 0.73465,-13.75712 0.73828,-22.56641 0.006,-15.86241 -0.0193,-16.1103 -2.49219,-25.83593 -2.65292,-10.43339 -5.24692,-17.20652 -9.42968,-24.61133 -3.95607,-7.0035 -9.96685,-15.41406 -11.01563,-15.41406 -0.51742,0 -1.69849,1.22935 -2.625,2.73046 -0.92647,1.50108 -4.58003,6.8225 -8.11914,11.82618 -3.53907,5.00364 -7.91191,11.28426 -9.71875,13.95703 l -3.28516,4.85937 2.15821,3.14649 c 3.12283,4.55251 7.72638,14.04959 9.46289,19.52148 2.71336,8.54982 4.0626,20.82547 3.55078,32.29297 -0.9185,20.57975 -6.69369,36.51572 -16.85352,46.50195 -10.91266,10.72615 -24.69741,9.96222 -35.87109,-1.99023 -5.4155,-5.79288 -9.20314,-12.45455 -12.24219,-21.52734 -7.77006,-23.19704 -5.42186,-52.24569 5.72461,-70.82422 4.44114,-7.40228 7.56317,-10.63425 13.22071,-13.68164 3.87994,-2.08986 5.13615,-2.397 9.89843,-2.41211 3.00023,-0.0102 6.27334,0.14538 7.27344,0.3457 1.728,0.34583 2.29812,-0.58539 11.47266,-18.75195 l 9.65429,-19.11719 -2.01758,-0.77735 c -2.10699,-0.812 -6.28154,-1.25422 -10.15234,-1.23046 z m -20.72656,85.90625 c -2.9007,-0.0695 -5.84118,1.8303 -7.95117,6.11914 -1.41683,2.87985 -1.73438,4.66535 -1.73438,9.71484 0,5.48837 0.24031,6.6224 2.14258,10.05859 1.17929,2.1303 2.98106,4.3291 4.00195,4.88477 7.52897,4.09803 14.47763,-3.9927 13.69727,-15.94727 -0.5958,-9.12644 -5.32176,-14.71425 -10.15625,-14.83007 z"
           transform="matrix(0.26458333,0,0,0.26458333,46.125923,41.341626)"
           id="path32"
           inkscape:connector-curvature="0" />
        <path
           id="path28"
           style="fill:#38374a;stroke-width:0.19331899"
           d="m 101.20665,207.41004 c -10.406569,-2.27244 -22.866109,-5.631 -39.391129,-10.61819 -10.28144,-3.10289 -13.75823,-4.19971 -14.78654,-4.66469 -1.101,-0.49785 -1.07302,-0.23218 -0.53748,-5.10234 1.42689,-12.97597 2.29133,-28.61211 2.94351,-53.24251 0.29058,-10.97389 0.28964,-57.257888 -0.001,-69.396815 -0.19267,-8.035843 -0.18372,-8.821188 0.10408,-9.139204 0.38041,-0.420354 -1.83847,0.245286 24.91608,-7.474546 l 22.06016,-6.365301 21.339959,3.169273 c 11.73699,1.743098 23.47131,3.483103 26.07629,3.866675 5.52486,0.813514 6.12708,0.947586 6.26794,1.395427 0.19963,0.634684 1.10275,11.412966 1.93938,23.145647 2.35201,32.983814 3.77111,74.141514 3.77654,109.529884 l 0.002,12.48371 -0.46016,0.43229 c -0.52197,0.49037 -0.78464,0.57701 -6.49933,2.14376 -14.08996,3.86292 -29.20456,7.27009 -40.23717,9.07036 -5.76094,0.94005 -6.41332,1.00662 -7.51264,0.76657 z m 7.79346,-2.28286 c 11.52672,-1.9523 27.99599,-5.71704 41.30958,-9.44305 l 3.96304,-1.10911 0.13829,-3.28336 c 0.1552,-3.6849 -0.13356,-34.81284 -0.43038,-46.3935 -0.79216,-30.90773 -2.08162,-56.750572 -4.15254,-83.223859 -0.55597,-7.107134 -0.90957,-11.019187 -0.99601,-11.019187 -0.0338,0 -8.87125,-1.308764 -19.63876,-2.908367 -25.61071,-3.804678 -28.18774,-4.187685 -29.981399,-4.45595 -0.94192,-0.140878 -1.57981,-0.157669 -1.69291,-0.04457 -0.1131,0.113103 0.32794,13.070406 1.17051,34.387928 2.758879,69.801385 4.528379,115.458455 4.742209,122.359935 0.16155,5.21414 0.24146,5.89623 0.69071,5.89623 0.20454,0 2.39948,-0.34341 4.87766,-0.76314 z m 2.61882,-61.72794 c -3.19058,-1.11692 -5.19267,-4.1734 -5.19267,-7.92735 v -1.55612 l 0.76263,-0.72547 c 1.14154,-1.08592 2.65063,-1.58332 4.55365,-1.50089 1.8743,0.0812 2.98488,0.56531 4.28938,1.86981 2.16641,2.16641 2.96698,6.31434 1.65999,8.60082 -0.84324,1.4752 -3.72127,2.06246 -6.07298,1.2392 z m 28.34819,-1.80753 c -1.33639,-0.42359 -2.95444,-1.56799 -3.81942,-2.70135 -1.10514,-1.44804 -1.54295,-2.7698 -1.64664,-4.97129 l -0.0892,-1.89309 0.78544,-0.74717 c 1.16395,-1.10724 2.66168,-1.60553 4.57646,-1.52259 1.87431,0.0812 2.98489,0.56531 4.28938,1.86981 2.16642,2.16641 2.96699,6.31434 1.66,8.60082 -0.77216,1.35083 -3.64855,2.03287 -5.75606,1.36486 z"
           inkscape:connector-curvature="0" />
        <path
           style="fill:#2a2a32;stroke-width:0.19331899"
           d="m 99.853816,205.57072 c -11.822885,-2.72606 -27.327392,-7.02619 -44.257046,-12.27456 -3.462739,-1.07349 -6.55687,-2.02852 -6.875847,-2.12229 -1.166228,-0.34286 -1.136472,-0.0826 -0.596322,-5.21587 1.43721,-13.65838 2.268128,-29.39826 2.846235,-53.91556 0.277295,-11.75997 0.274879,-52.745817 -0.0039,-65.724872 -0.166479,-7.751387 -0.160107,-9.808495 0.03097,-9.999576 0.132314,-0.132313 2.327419,-0.843967 4.878011,-1.58145 27.370266,-7.913907 38.95964,-11.234233 39.212312,-11.234233 0.192178,0 0.335868,0.228066 0.39584,0.628287 0.05178,0.345558 0.363828,7.718264 0.693439,16.383791 0.329611,8.665527 1.246015,32.19729 2.036454,52.292803 2.024648,51.47308 3.363588,86.69521 3.424378,90.08148 0.0595,3.31544 0.17962,3.13494 -1.784561,2.68205 z m 12.275764,-62.18853 c -1.3851,-0.46009 -2.31303,-1.0398 -3.22492,-2.01468 -1.53515,-1.6412 -2.2782,-3.54759 -2.28238,-5.85573 -0.002,-1.17942 0.0411,-1.30825 0.62599,-1.86402 1.6077,-1.52775 4.23803,-2.03178 6.38176,-1.22287 1.41899,0.53543 2.78904,1.85208 3.52467,3.38727 0.73003,1.52352 0.90395,4.13171 0.38543,5.7802 -0.30084,0.95648 -0.43067,1.1174 -1.20312,1.49133 -1.06561,0.51586 -3.11531,0.66128 -4.20743,0.2985 z m 27.9899,-1.94259 c -3.31168,-1.0824 -5.45925,-4.171 -5.46594,-7.86101 -0.002,-1.17942 0.0411,-1.30825 0.626,-1.86402 1.6077,-1.52775 4.23803,-2.03178 6.38176,-1.22287 1.41898,0.53543 2.78904,1.85208 3.52466,3.38727 0.73004,1.52352 0.90395,4.13171 0.38544,5.7802 -0.30085,0.95647 -0.43067,1.1174 -1.20312,1.49133 -1.07939,0.52253 -3.11157,0.6608 -4.2488,0.2891 z"
           id="path26"
           inkscape:connector-curvature="0" />
      </g>
    </g>
  </g>
</svg>
